<svg xmlns="http://www.w3.org/2000/svg" viewBox="0 0 512 512" width="512" height="512"><rect width="512" height="512" rx="112.64" fill="#15171A"/><g transform="translate(66.56,66.56) scale(3.7888)"><g stroke="#FFFFFF" stroke-width="15" fill="none" stroke-linecap="round" stroke-linejoin="round"><path d="M 22.00,40.02 L 22.00,39.42 L 22.00,38.82 L 22.00,38.21 L 22.00,37.61 L 22.00,37.01 L 22.00,36.40 L 22.00,35.80 L 22.00,35.19 L 22.00,34.59 L 22.00,33.99 L 22.00,33.38 L 22.00,32.78 L 22.00,32.17 L 22.00,31.57 L 22.00,30.97 L 22.00,30.36 L 22.00,29.76 L 22.00,29.16 L 22.00,28.55 L 22.00,27.95 L 22.04,27.35 L 22.13,26.75 L 22.29,26.17 L 22.50,25.60 L 22.77,25.06 L 23.09,24.55 L 23.46,24.07 L 23.88,23.64 L 24.34,23.25 L 24.83,22.90 L 25.36,22.61 L 25.92,22.37 L 26.49,22.19 L 27.08,22.07 L 27.68,22.01 L 28.29,22.00 L 28.89,22.00 L 29.50,22.00 L 30.10,22.00 L 30.70,22.00 L 31.31,22.00 L 31.91,22.00 L 32.51,22.00 L 33.12,22.00 L 33.72,22.00 L 34.33,22.00 L 34.93,22.00 L 35.53,22.00 L 36.14,22.00 L 36.74,22.00 L 37.35,22.00 L 37.95,22.00 L 38.55,22.00 L 39.16,22.00 L 39.76,22.00 L 40.36,22.00 L 40.97,22.00 L 41.57,22.00 L 42.18,22.00 L 42.78,22.00 L 43.38,22.00 L 43.99,22.00 L 44.59,22.00 L 45.19,22.00 L 45.80,22.00 L 46.40,22.00 L 47.01,22.00 L 47.61,22.00 L 48.21,22.00 L 48.82,22.00 L 49.42,22.00 L 50.03,22.00 L 50.63,22.00 L 51.23,22.00 L 51.84,22.00 L 52.44,22.00 L 53.04,22.00 L 53.65,22.00 L 54.25,22.00 L 54.86,22.00 L 55.46,22.00 L 56.06,22.00 L 56.67,22.00 L 57.27,22.00 L 57.88,22.00 L 58.48,22.00 L 59.08,22.00 L 59.69,22.00 L 60.29,22.00 L 60.89,22.00 L 61.50,22.00 L 62.10,22.00 L 62.71,22.00 L 63.31,22.00 L 63.91,22.00 L 64.52,22.00 L 65.12,22.00 L 65.72,22.00 L 66.33,22.00 L 66.93,22.00 L 67.54,22.00 L 68.14,22.00 L 68.74,22.00 L 69.35,22.00 L 69.95,22.00 L 70.56,22.00 L 71.16,22.00 L 71.76,22.00 L 72.37,22.01 L 72.97,22.08 L 73.56,22.21 L 74.13,22.39 L 74.68,22.63 L 75.21,22.93 L 75.70,23.28 L 76.16,23.67 L 76.57,24.11 L 76.94,24.59 L 77.26,25.11 L 77.52,25.65 L 77.73,26.21 L 77.88,26.80 L 77.97,27.40 L 78.00,28.00 L 78.00,28.60 L 78.00,29.21 L 78.00,29.81 L 78.00,30.41 L 78.00,31.02 L 78.00,31.62 L 78.00,32.23 L 78.00,32.83 L 78.00,33.43 L 78.00,34.04 L 78.00,34.64 L 78.00,35.24 L 78.00,35.85 L 78.00,36.45 L 78.00,37.06 L 78.00,37.66 L 78.00,38.26 L 78.00,38.87 L 78.00,39.47 L 78.00,40.08"/><path d="M 78.00,60.08 L 78.00,60.68 L 78.00,61.28 L 78.00,61.88 L 78.00,62.48 L 78.00,63.09 L 78.00,63.69 L 78.00,64.29 L 78.00,64.89 L 78.00,65.50 L 78.00,66.10 L 78.00,66.70 L 78.00,67.30 L 78.00,67.91 L 78.00,68.51 L 78.00,69.11 L 78.00,69.71 L 78.00,70.32 L 78.00,70.92 L 78.00,71.52 L 78.00,72.12 L 77.96,72.72 L 77.85,73.32 L 77.69,73.90 L 77.47,74.46 L 77.20,75.00 L 76.87,75.50 L 76.50,75.97 L 76.08,76.40 L 75.61,76.79 L 75.12,77.13 L 74.59,77.41 L 74.03,77.65 L 73.45,77.82 L 72.86,77.94 L 72.26,77.99 L 71.66,78.00 L 71.06,78.00 L 70.46,78.00 L 69.85,78.00 L 69.25,78.00 L 68.65,78.00 L 68.05,78.00 L 67.45,78.00 L 66.84,78.00 L 66.24,78.00 L 65.64,78.00 L 65.04,78.00 L 64.43,78.00 L 63.83,78.00 L 63.23,78.00 L 62.63,78.00 L 62.02,78.00 L 61.42,78.00 L 60.82,78.00 L 60.22,78.00 L 59.61,78.00 L 59.01,78.00 L 58.41,78.00 L 57.81,78.00 L 57.20,78.00 L 56.60,78.00 L 56.00,78.00 L 55.40,78.00 L 54.79,78.00 L 54.19,78.00 L 53.59,78.00 L 52.99,78.00 L 52.38,78.00 L 51.78,78.00 L 51.18,78.00 L 50.58,78.00 L 49.97,78.00 L 49.37,78.00 L 48.77,78.00 L 48.17,78.00 L 47.56,78.00 L 46.96,78.00 L 46.36,78.00 L 45.76,78.00 L 45.16,78.00 L 44.55,78.00 L 43.95,78.00 L 43.35,78.00 L 42.75,78.00 L 42.14,78.00 L 41.54,78.00 L 40.94,78.00 L 40.34,78.00 L 39.73,78.00 L 39.13,78.00 L 38.53,78.00 L 37.93,78.00 L 37.32,78.00 L 36.72,78.00 L 36.12,78.00 L 35.52,78.00 L 34.91,78.00 L 34.31,78.00 L 33.71,78.00 L 33.11,78.00 L 32.50,78.00 L 31.90,78.00 L 31.30,78.00 L 30.70,78.00 L 30.09,78.00 L 29.49,78.00 L 28.89,78.00 L 28.29,78.00 L 27.68,77.99 L 27.09,77.93 L 26.50,77.81 L 25.92,77.63 L 25.37,77.39 L 24.84,77.10 L 24.35,76.76 L 23.89,76.37 L 23.47,75.93 L 23.10,75.46 L 22.78,74.95 L 22.51,74.41 L 22.29,73.85 L 22.14,73.27 L 22.04,72.67 L 22.00,72.07 L 22.00,71.47 L 22.00,70.87 L 22.00,70.27 L 22.00,69.66 L 22.00,69.06 L 22.00,68.46 L 22.00,67.86 L 22.00,67.25 L 22.00,66.65 L 22.00,66.05 L 22.00,65.45 L 22.00,64.84 L 22.00,64.24 L 22.00,63.64 L 22.00,63.04 L 22.00,62.43 L 22.00,61.83 L 22.00,61.23 L 22.00,60.63 L 22.00,60.02"/></g><g fill="#FFFFFF" stroke="none"><path d="M 78.00,54.33 L 60.75,37.83 L 95.25,37.83 Z"/><path d="M 22.00,45.77 L 39.25,62.27 L 4.75,62.27 Z"/></g></g></svg>