<svg xmlns="http://www.w3.org/2000/svg" viewBox="0 0 100 100" width="100" height="100"><g stroke="#15171A" stroke-width="9.5" fill="none" stroke-linecap="round" stroke-linejoin="round"><path d="M 23.00,41.45 L 23.00,40.85 L 23.00,40.25 L 23.00,39.65 L 23.00,39.05 L 23.00,38.45 L 23.00,37.85 L 23.00,37.25 L 23.00,36.65 L 23.00,36.05 L 23.00,35.45 L 23.00,34.85 L 23.00,34.25 L 23.00,33.65 L 23.00,33.05 L 23.00,32.45 L 23.00,31.85 L 23.00,31.25 L 23.01,30.65 L 23.06,30.05 L 23.15,29.46 L 23.29,28.87 L 23.47,28.30 L 23.69,27.74 L 23.96,27.21 L 24.26,26.69 L 24.60,26.20 L 24.98,25.73 L 25.39,25.29 L 25.84,24.89 L 26.31,24.52 L 26.81,24.19 L 27.33,23.89 L 27.87,23.64 L 28.43,23.42 L 29.01,23.25 L 29.60,23.12 L 30.19,23.04 L 30.79,23.00 L 31.39,23.00 L 31.99,23.00 L 32.59,23.00 L 33.19,23.00 L 33.79,23.00 L 34.39,23.00 L 34.99,23.00 L 35.59,23.00 L 36.19,23.00 L 36.79,23.00 L 37.39,23.00 L 37.99,23.00 L 38.59,23.00 L 39.19,23.00 L 39.79,23.00 L 40.39,23.00 L 40.99,23.00 L 41.59,23.00 L 42.19,23.00 L 42.79,23.00 L 43.39,23.00 L 43.99,23.00 L 44.59,23.00 L 45.19,23.00 L 45.79,23.00 L 46.39,23.00 L 46.99,23.00 L 47.59,23.00 L 48.19,23.00 L 48.79,23.00 L 49.39,23.00 L 49.99,23.00 L 50.59,23.00 L 51.19,23.00 L 51.79,23.00 L 52.39,23.00 L 52.99,23.00 L 53.59,23.00 L 54.19,23.00 L 54.79,23.00 L 55.39,23.00 L 55.99,23.00 L 56.59,23.00 L 57.19,23.00 L 57.79,23.00 L 58.39,23.00 L 58.99,23.00 L 59.59,23.00 L 60.19,23.00 L 60.79,23.00 L 61.39,23.00 L 61.99,23.00 L 62.59,23.00 L 63.19,23.00 L 63.79,23.00 L 64.39,23.00 L 65.00,23.00 L 65.60,23.00 L 66.20,23.00 L 66.80,23.00 L 67.40,23.00 L 68.00,23.00 L 68.60,23.00 L 69.20,23.00 L 69.79,23.04 L 70.39,23.12 L 70.98,23.25 L 71.55,23.42 L 72.11,23.63 L 72.66,23.88 L 73.18,24.18 L 73.68,24.51 L 74.15,24.88 L 74.60,25.28 L 75.01,25.72 L 75.39,26.18 L 75.73,26.68 L 76.04,27.19 L 76.30,27.73 L 76.53,28.29 L 76.71,28.86 L 76.85,29.44 L 76.94,30.03 L 76.99,30.63 L 77.00,31.23 L 77.00,31.83 L 77.00,32.43 L 77.00,33.03 L 77.00,33.63 L 77.00,34.23 L 77.00,34.83 L 77.00,35.43 L 77.00,36.03 L 77.00,36.63 L 77.00,37.23 L 77.00,37.83 L 77.00,38.43 L 77.00,39.03 L 77.00,39.63 L 77.00,40.23 L 77.00,40.83 L 77.00,41.43"/><path d="M 77.00,58.43 L 77.00,59.04 L 77.00,59.64 L 77.00,60.24 L 77.00,60.84 L 77.00,61.44 L 77.00,62.04 L 77.00,62.65 L 77.00,63.25 L 77.00,63.85 L 77.00,64.45 L 77.00,65.05 L 77.00,65.66 L 77.00,66.26 L 77.00,66.86 L 77.00,67.46 L 77.00,68.06 L 77.00,68.66 L 77.00,69.27 L 76.95,69.87 L 76.87,70.46 L 76.73,71.05 L 76.56,71.62 L 76.34,72.18 L 76.08,72.73 L 75.78,73.25 L 75.44,73.75 L 75.07,74.22 L 74.66,74.66 L 74.22,75.07 L 73.74,75.44 L 73.25,75.78 L 72.73,76.08 L 72.18,76.34 L 71.62,76.56 L 71.05,76.73 L 70.46,76.87 L 69.86,76.95 L 69.26,77.00 L 68.66,77.00 L 68.06,77.00 L 67.46,77.00 L 66.86,77.00 L 66.26,77.00 L 65.65,77.00 L 65.05,77.00 L 64.45,77.00 L 63.85,77.00 L 63.25,77.00 L 62.65,77.00 L 62.04,77.00 L 61.44,77.00 L 60.84,77.00 L 60.24,77.00 L 59.64,77.00 L 59.03,77.00 L 58.43,77.00 L 57.83,77.00 L 57.23,77.00 L 56.63,77.00 L 56.03,77.00 L 55.42,77.00 L 54.82,77.00 L 54.22,77.00 L 53.62,77.00 L 53.02,77.00 L 52.41,77.00 L 51.81,77.00 L 51.21,77.00 L 50.61,77.00 L 50.01,77.00 L 49.41,77.00 L 48.80,77.00 L 48.20,77.00 L 47.60,77.00 L 47.00,77.00 L 46.40,77.00 L 45.80,77.00 L 45.19,77.00 L 44.59,77.00 L 43.99,77.00 L 43.39,77.00 L 42.79,77.00 L 42.18,77.00 L 41.58,77.00 L 40.98,77.00 L 40.38,77.00 L 39.78,77.00 L 39.18,77.00 L 38.57,77.00 L 37.97,77.00 L 37.37,77.00 L 36.77,77.00 L 36.17,77.00 L 35.56,77.00 L 34.96,77.00 L 34.36,77.00 L 33.76,77.00 L 33.16,77.00 L 32.56,77.00 L 31.95,77.00 L 31.35,77.00 L 30.75,77.00 L 30.15,76.95 L 29.56,76.87 L 28.97,76.74 L 28.39,76.56 L 27.83,76.35 L 27.29,76.09 L 26.77,75.79 L 26.27,75.45 L 25.80,75.08 L 25.35,74.67 L 24.94,74.23 L 24.57,73.76 L 24.23,73.26 L 23.93,72.74 L 23.67,72.20 L 23.45,71.64 L 23.27,71.06 L 23.14,70.48 L 23.05,69.88 L 23.00,69.28 L 23.00,68.68 L 23.00,68.08 L 23.00,67.48 L 23.00,66.87 L 23.00,66.27 L 23.00,65.67 L 23.00,65.07 L 23.00,64.47 L 23.00,63.87 L 23.00,63.26 L 23.00,62.66 L 23.00,62.06 L 23.00,61.46 L 23.00,60.86 L 23.00,60.25 L 23.00,59.65 L 23.00,59.05 L 23.00,58.45"/></g><g fill="#15171A" stroke="none"><path d="M 77.00,50.46 L 66.08,40.01 L 87.92,40.01 Z"/><path d="M 23.00,49.42 L 33.92,59.87 L 12.08,59.87 Z"/></g></svg>